# xmcd
# 
# Track frame offsets:
#     150
#     18099
#     34831
#     53740
#     76706
#     93499
#     111979
#     128510
#     148321
#     168551
#     184140
#     200619
# 
# Disc length: 2904
# 
# Revision: 0
# Processed by: cddbd v1.5.2PL0 Copyright (c) Steve Scherf et al.
# Submitted via: fre:ac v1.0.17
# 
DISCID=9e0b560c
DTITLE=BT - Blues is geil
DYEAR=2013
DGENRE=Blues
TTITLE0=Blues is geil
TTITLE1=Stranger
TTITLE2=All I Want
TTITLE3=Unlucky Man
TTITLE4=Disappear
TTITLE5=All Day Blues
TTITLE6=Come back Home
TTITLE7=Nobody Else
TTITLE8=Room 44
TTITLE9=Little Red Rooster
TTITLE10=Ain't no Sunshine
TTITLE11=Murphy
EXTD=
EXTT0=
EXTT1=
EXTT2=
EXTT3=
EXTT4=
EXTT5=
EXTT6=
EXTT7=
EXTT8=
EXTT9=
EXTT10=
EXTT11=
PLAYORDER=
